<?xml version="1.0" encoding="UTF-8"?><svg id="a" xmlns="http://www.w3.org/2000/svg" width="24" height="24" viewBox="0 0 24 24"><path d="m9.3329,2c-1.10557.00082-2.00032.89623-1.99951,1.99959-.00082,1.10336.89475,1.99878,2.00032,1.99959h2.00032v-1.99878c.00082-1.10336-.89475-1.99878-2.00114-2.00041q.00082,0,0,0m0,5.33333h-5.33256c-1.10557.00082-2.00114.89623-2.00032,1.99959-.00163,1.10336.89394,1.99878,1.99951,2.00041h5.33338c1.10557-.00082,2.00114-.89623,2.00032-1.99959.00082-1.10418-.89475-1.99959-2.00032-2.00041h0Z" fill="#36c5f0" fill-rule="evenodd" stroke-width="0"/><path d="m21.99998,9.33293c.00082-1.10336-.89475-1.99878-2.00032-1.99959-1.10557.00082-2.00114.89623-2.00032,1.99959v2.00041h2.00032c1.10557-.00082,2.00114-.89623,2.00032-2.00041Zm-5.33338,0V3.99959c.00082-1.10255-.89394-1.99796-1.99951-1.99959-1.10557.00082-2.00114.89623-2.00032,1.99959v5.33333c-.00163,1.10336.89394,1.99878,1.99951,2.00041,1.10557-.00082,2.00114-.89623,2.00032-2.00041Z" fill="#2eb67d" fill-rule="evenodd" stroke-width="0"/><path d="m14.66628,22c1.10557-.00082,2.00114-.89623,2.00032-1.99959.00082-1.10336-.89475-1.99878-2.00032-1.99959h-2.00032v1.99959c-.00082,1.10255.89475,1.99796,2.00032,1.99959Zm0-5.33415h5.33338c1.10557-.00082,2.00114-.89623,2.00032-1.99959.00163-1.10336-.89393-1.99878-1.99951-2.00041h-5.33338c-1.10557.00082-2.00114.89623-2.00032,1.99959-.00082,1.10418.89394,1.99959,1.99951,2.00041h0Z" fill="#ecb22e" fill-rule="evenodd" stroke-width="0"/><path d="m2.00002,14.66626c-.00082,1.10336.89475,1.99878,2.00032,1.99959,1.10557-.00082,2.00114-.89623,2.00032-1.99959v-1.99959h-2.00032c-1.10557.00082-2.00114.89623-2.00032,1.99959Zm5.33338,0v5.33333c-.00163,1.10336.89394,1.99878,1.99951,2.00041,1.10557-.00082,2.00114-.89623,2.00032-1.99959v-5.33252c.00163-1.10336-.89394-1.99878-1.99951-2.00041-1.10639,0-2.00114.89541-2.00032,1.99878,0,0,0,.00082,0,0" fill="#e01e5a" fill-rule="evenodd" stroke-width="0"/></svg>