<?xml version="1.0" encoding="UTF-8"?><svg id="a" xmlns="http://www.w3.org/2000/svg" width="24" height="24" xmlns:xlink="http://www.w3.org/1999/xlink" viewBox="0 0 24 24"><defs><linearGradient id="b" x1="-2.97136" y1="29.154" x2="-2.97136" y2="29.1939" gradientTransform="translate(1502.32474 14635.17042) scale(501.56304 -501.24067)" gradientUnits="userSpaceOnUse"><stop offset="0" stop-color="#0052cc"/><stop offset="1" stop-color="#2684ff"/></linearGradient></defs><path d="m19.62575,2H4.37746c-1.31177,0-2.37567,1.06315-2.37744,2.37576v15.23565c-.00531,1.31386,1.05479,2.38326,2.36781,2.38857.00321.00001.00642.00002.00963.00002h15.24829c1.31302-.00176,2.37601-1.06829,2.37425-2.38215,0-.00215,0-.00429-.00002-.00643V4.37576c-.00176-1.31136-1.06371-2.374-2.37423-2.37576Zm-9.0003,14.40526c-.00176.43913-.35894.7937-.79779.79194-.00108,0-.00216-.00001-.00324-.00002h-3.33226c-.43583-.00177-.78821-.3558-.78821-.79192V6.48221c0-.43612.35237-.79015.78821-.79192h3.33226c.43635.00176.78966.35528.79141.79192l.00961,9.92305Zm7.68983-4.55595c.00003.43737-.35427.79195-.79135.79198-.00322,0-.00645-.00002-.00967-.00006h-3.33226c-.43635-.00176-.78966-.35528-.79141-.79192v-5.36711c.00176-.43664.35506-.79016.79141-.79192h3.33226c.43583.00177.78821.3558.78821.79192l.01282,5.36711Z" fill="url(#b)" fill-rule="evenodd" stroke-width="0"/></svg>