<?xml version="1.0" encoding="UTF-8"?><svg id="a" xmlns="http://www.w3.org/2000/svg" width="24" height="24" viewBox="0 0 24 24"><path d="m4,7c0-2.76141,2.23859-5,5-5s5,2.23859,5,5-2.23859,5-5,5-5-2.23859-5-5Zm8,9h-6c-2.20923,0-4,1.79077-4,4v1c0,.55219.44769,1,1,1h12c.55231,0,1-.44781,1-1v-1c0-2.20923-1.79077-4-4-4Z" fill="#dbeafe" stroke-width="0"/><path d="m16,7c0-1.90479-.76691-3.6322-2.00537-4.89563.32507-.06635.66064-.10437,1.00537-.10437,2.76141,0,5,2.23859,5,5s-2.23859,5-5,5c-.34479,0-.6803-.03802-1.00537-.10443,1.23859-1.26337,2.00537-2.99078,2.00537-4.89557Zm2,9h-1.54053c.95435,1.06281,1.54053,2.46252,1.54053,4v1c0,.35242-.0722.68567-.18433,1h3.18433c.55231,0,1-.44781,1-1v-1c0-2.20923-1.79077-4-4-4Z" fill="#60a5fa" stroke-width="0"/><path d="m20.5,7c0,3.0327-2.4673,5.5-5.5,5.5-.4934,0-.9749-.071-1.4424-.1981.3064-.2638.593-.5499.8499-.8623.1965.0259.3913.0604.5925.0604,2.4814,0,4.5-2.0186,4.5-4.5s-2.0186-4.5-4.5-4.5c-.2012,0-.3961.0345-.5925.0604-.2569-.3124-.5435-.5985-.8499-.8623.4675-.1271.949-.1981,1.4424-.1981,3.0327,0,5.5,2.4673,5.5,5.5Zm-2.5,8.5h-2c-.0129,0-.0237.0063-.0364.0073.3356.2964.6375.6289.9.9927h1.1365c1.9297,0,3.5,1.5703,3.5,3.5v1c0,.2759-.2241.5-.5.5h-3.0505c-.061.3605-.189.6951-.3667,1h3.4172c.8271,0,1.5-.6729,1.5-1.5v-1c0-2.4814-2.0186-4.5-4.5-4.5h-.0001ZM9,1.5c3.0327,0,5.5,2.4673,5.5,5.5s-2.4673,5.5-5.5,5.5-5.5-2.4673-5.5-5.5S5.9673,1.5,9,1.5Zm0,1c-2.4814,0-4.5,2.0186-4.5,4.5s2.0186,4.5,4.5,4.5,4.5-2.0186,4.5-4.5-2.0186-4.5-4.5-4.5ZM1.5,21v-1c0-2.4814,2.0186-4.5,4.5-4.5h6c2.4814,0,4.5,2.0186,4.5,4.5v1c0,.8271-.6729,1.5-1.5,1.5H3c-.8271,0-1.5-.6729-1.5-1.5Zm1,0c0,.2759.2241.5.5.5h12c.2759,0,.5-.2241.5-.5v-1c0-1.9297-1.5703-3.5-3.5-3.5h-6c-1.9297,0-3.5,1.5703-3.5,3.5v1Z" fill="#1d4ed8" stroke-width="0"/></svg>