<?xml version="1.0" encoding="UTF-8"?><svg id="a" xmlns="http://www.w3.org/2000/svg" width="24" height="24" viewBox="0 0 24 24"><path d="m15.6968,12.4905l-2.8295,1.4148c-.8491.4245-1.5375,1.113-1.962,1.962l-1.4148,2.8295c-.2021.4042-.7789.4042-.981,0l-1.4148-2.8295c-.4245-.8491-1.113-1.5375-1.962-1.962l-2.8295-1.4148c-.4042-.2021-.4042-.7789,0-.981l2.8295-1.4148c.8491-.4246,1.5375-1.113,1.962-1.9621l1.4148-2.8295c.2021-.4042.7789-.4042.981,0l1.4148,2.8295c.4245.8491,1.113,1.5375,1.962,1.9621l2.8295,1.4148c.4042.2021.4042.7789,0,.981Zm6.1732,6.2993l-1.2127-.6063c-.3639-.182-.6589-.477-.8409-.8409l-.6063-1.2126c-.0866-.1732-.3338-.1732-.4204,0l-.6063,1.2126c-.1819.3639-.477.6589-.8409.8409l-1.2127.6063c-.1732.0866-.1732.3338,0,.4204l1.2127.6063c.3639.1819.6589.477.8409.8409l.6063,1.2126c.0866.1732.3338.1732.4204,0l.6063-1.2126c.1819-.3639.477-.6589.8409-.8409l1.2127-.6063c.1732-.0866.1732-.3338,0-.4204Zm0-14l-1.2127-.6063c-.3639-.182-.6589-.477-.8409-.8409l-.6063-1.2126c-.0866-.1732-.3338-.1732-.4204,0l-.6063,1.2126c-.1819.3639-.477.6589-.8409.8409l-1.2127.6063c-.1732.0866-.1732.3338,0,.4204l1.2127.6063c.3639.1819.6589.477.8409.8409l.6063,1.2126c.0866.1732.3338.1732.4204,0l.6063-1.2126c.1819-.3639.477-.6589.8409-.8409l1.2127-.6063c.1732-.0866.1732-.3338,0-.4204Z"/></svg>