<?xml version="1.0" encoding="UTF-8"?><svg id="a" xmlns="http://www.w3.org/2000/svg" width="24" height="24" viewBox="0 0 24 24"><path d="m9,1.5c-3.0327,0-5.5,2.4673-5.5,5.5s2.4673,5.5,5.5,5.5,5.5-2.4673,5.5-5.5S12.0327,1.5,9,1.5Zm0,10c-2.4814,0-4.5-2.0186-4.5-4.5s2.0186-4.5,4.5-4.5,4.5,2.0186,4.5,4.5-2.0186,4.5-4.5,4.5Zm-6,11h12c.8271,0,1.5-.6729,1.5-1.5v-1c0-2.4814-2.0186-4.5-4.5-4.5h-6c-2.4814,0-4.5,2.0186-4.5,4.5v1c0,.8271.6729,1.5,1.5,1.5Zm-.5-2.5c0-1.9297,1.5703-3.5,3.5-3.5h6c1.9297,0,3.5,1.5703,3.5,3.5v1c0,.2759-.2241.5-.5.5H3c-.2759,0-.5-.2241-.5-.5v-1Zm12.5-7.5c-.4934,0-.9749-.071-1.4424-.1981.3064-.2638.593-.5499.8499-.8623.1965.0259.3913.0604.5925.0604,2.4814,0,4.5-2.0186,4.5-4.5s-2.0186-4.5-4.5-4.5c-.2012,0-.3961.0345-.5925.0604-.2569-.3124-.5435-.5985-.8499-.8623.4675-.1271.949-.1981,1.4424-.1981,3.0327,0,5.5,2.4673,5.5,5.5s-2.4673,5.5-5.5,5.5Zm6.5,8.5v-1c0-1.9297-1.5703-3.5-3.5-3.5h-1.1365c-.2646-.3668-.5692-.7018-.908-1h2.0445c2.4814,0,4.5,2.0186,4.5,4.5v1c0,.8271-.6729,1.5-1.5,1.5h-3.4172c.1777-.3049.3057-.6395.3667-1h3.0505c.2759,0,.5-.2241.5-.5Z"/></svg>