<?xml version="1.0" encoding="UTF-8"?><svg id="a" xmlns="http://www.w3.org/2000/svg" width="24" height="24" viewBox="0 0 24 24"><path d="m21.3535,20.6465L3.3535,2.6465c-.1953-.1953-.5117-.1953-.707,0s-.1953.5117,0,.707l5.1655,5.1655c-.7377.0936-1.312.7183-1.312,1.481v4c0,.8271.6729,1.5,1.5,1.5h2.8154l4.3271,3.7041c.2578.1963.5547.2964.8555.2964.209,0,.4209-.0488.6201-.1479.4546-.2249.7517-.6668.8416-1.1858l3.1868,3.1868c.0977.0977.2256.1465.3535.1465s.2559-.0488.3535-.1465c.1953-.1953.1953-.5117,0-.707Zm-4.8535-2.7896c0,.3232-.168.5215-.3252.5996-.1016.0488-.2578.0811-.4043-.0303l-4.4453-3.8062c-.0908-.0776-.2061-.1201-.3252-.1201h-3c-.2754,0-.5-.2241-.5-.5v-4c0-.2759.2246-.5.5-.5h.793l7.707,7.707v.6499Zm-4.6993-8.8843l-.7091-.7091,4.0285-3.45c.4619-.3511,1.0137-.4067,1.498-.166.5439.2695.8818.8423.8818,1.4956v8.5288l-1-1v-7.5288c0-.3232-.168-.5215-.3252-.5996-.0996-.0503-.2568-.0825-.4268.0479l-3.9473,3.3813Z"/></svg>