<?xml version="1.0" encoding="UTF-8"?><svg id="a" xmlns="http://www.w3.org/2000/svg" width="24" height="24" viewBox="0 0 24 24"><path d="m3,15.5h2.8154l4.3271,3.7041c.2578.1963.5552.2964.8555.2964.2095,0,.4209-.0488.6206-.1479.5435-.2695.8813-.8423.8813-1.4956V6.1431c0-.6528-.3374-1.2261-.8809-1.4956-.4863-.2407-1.0386-.1851-1.4766.1479-.0078.0059-.0151.0117-.0225.0181l-4.3052,3.6865h-2.8149c-.8271,0-1.5.6729-1.5,1.5v4c0,.8271.6729,1.5,1.5,1.5Zm-.5-5.5c0-.2759.2241-.5.5-.5h3c.1191,0,.2349-.0425.3252-.1201l4.4326-3.7959c.1665-.1216.3188-.0898.417-.0405.1572.0776.3252.2764.3252.5996v11.7139c0,.3232-.168.5215-.3252.5996-.1001.0493-.2554.082-.4043-.0303l-4.4453-3.8062c-.0908-.0776-.2061-.1201-.3252-.1201h-3c-.2759,0-.5-.2241-.5-.5v-4Zm13.5,8.5c-.2764,0-.5-.2236-.5-.5s.2236-.5.5-.5c3.0322,0,5.5-2.4673,5.5-5.5s-2.4678-5.5-5.5-5.5c-.2764,0-.5-.2236-.5-.5s.2236-.5.5-.5c3.584,0,6.5,2.916,6.5,6.5s-2.916,6.5-6.5,6.5Zm2.5-6.5c0-1.3784-1.1211-2.5-2.5-2.5-.2764,0-.5-.2236-.5-.5s.2236-.5.5-.5c1.9297,0,3.5,1.5703,3.5,3.5s-1.5703,3.5-3.5,3.5c-.2764,0-.5-.2236-.5-.5s.2236-.5.5-.5c1.3789,0,2.5-1.1216,2.5-2.5Z"/></svg>