<?xml version="1.0" encoding="UTF-8"?><svg id="a" xmlns="http://www.w3.org/2000/svg" width="24" height="24" viewBox="0 0 24 24"><path d="m17.707,7.707l-4.293,4.293,4.293,4.293c.3906.3906.3906,1.0234,0,1.4141-.1953.1953-.4512.293-.707.293s-.5117-.0977-.707-.293l-4.293-4.293-4.293,4.293c-.1953.1953-.4512.293-.707.293s-.5117-.0977-.707-.293c-.3906-.3906-.3906-1.0234,0-1.4141l4.293-4.293-4.293-4.293c-.3906-.3906-.3906-1.0234,0-1.4141s1.0234-.3906,1.4141,0l4.293,4.293,4.293-4.293c.3906-.3906,1.0234-.3906,1.4141,0s.3906,1.0234,0,1.4141Z"/></svg>